<?xml version="1.0" encoding="UTF-8" standalone="no"?>
<svg
   width="32"
   height="32"
   viewBox="0 0 32 32"
   fill="none"
   version="1.1"
   id="svg10"
   sodipodi:docname="add_icon.svg"
   inkscape:version="1.1 (c68e22c387, 2021-05-23)"
   xmlns:inkscape="http://www.inkscape.org/namespaces/inkscape"
   xmlns:sodipodi="http://sodipodi.sourceforge.net/DTD/sodipodi-0.dtd"
   xmlns="http://www.w3.org/2000/svg"
   xmlns:svg="http://www.w3.org/2000/svg">
  <defs
     id="defs14" />
  <sodipodi:namedview
     id="namedview12"
     pagecolor="#505050"
     bordercolor="#eeeeee"
     borderopacity="1"
     inkscape:pageshadow="0"
     inkscape:pageopacity="0"
     inkscape:pagecheckerboard="0"
     showgrid="false"
     inkscape:zoom="3.25"
     inkscape:cx="-36.769231"
     inkscape:cy="88.461538"
     inkscape:window-width="1920"
     inkscape:window-height="1017"
     inkscape:window-x="-8"
     inkscape:window-y="-8"
     inkscape:window-maximized="1"
     inkscape:current-layer="svg10" />
  <g
     id="g835"
     transform="matrix(0.59769316,0,0,0.59769316,-3.1261927,-3.1174615)">
    <path
       d="M 38.7999,26.56 H 41.16 c 0.2336,-0.0107 0.467,0.0252 0.6865,0.1057 0.2196,0.0806 0.4209,0.204 0.5922,0.3632 0.1713,0.1592 0.3092,0.351 0.4056,0.5641 0.0963,0.2131 0.1493,0.4432 0.1557,0.677 2e-4,0.225 -0.0458,0.4476 -0.1353,0.6541 -0.0894,0.2064 -0.2204,0.3922 -0.3848,0.5459 -0.3492,0.3282 -0.8107,0.5107 -1.29,0.51 H 36.68 c -0.3316,0 -0.6495,0.1317 -0.8839,0.3661 -0.2345,0.2344 -0.3661,0.5524 -0.3661,0.8839 0,0.3315 0.1316,0.6495 0.3661,0.8839 0.2344,0.2344 0.5523,0.3661 0.8839,0.3661 h 2 v 2.14 c 0,0.3315 0.1316,0.6495 0.3661,0.8839 0.2344,0.2344 0.5523,0.3661 0.8839,0.3661 0.3315,0 0.6494,-0.1317 0.8838,-0.3661 C 41.0483,35.2695 41.18,34.9515 41.18,34.62 v -2.14 c 1.1203,-0.0023 2.196,-0.4397 3,-1.22 0.4035,-0.3887 0.7247,-0.8546 0.9446,-1.37 0.2199,-0.5154 0.334,-1.0697 0.3353,-1.63 C 45.4441,27.131 44.9818,26.0542 44.1741,25.2652 43.3664,24.4763 42.279,24.0393 41.15,24.05 H 38.7999 C 38.3365,24.0608 37.8875,23.8883 37.5505,23.57 37.2135,23.2517 37.0156,22.8133 37,22.35 c -4e-4,-0.2241 0.0445,-0.4459 0.1322,-0.6522 0.0876,-0.2062 0.2161,-0.3926 0.3777,-0.5478 0.3497,-0.3351 0.8157,-0.5216 1.3001,-0.52 h 4.48 c 0.3315,0 0.6494,-0.1317 0.8838,-0.3661 0.2345,-0.2344 0.3662,-0.5524 0.3662,-0.8839 0,-0.3315 -0.1317,-0.6495 -0.3662,-0.8839 C 43.9394,18.2617 43.6215,18.13 43.29,18.13 H 41.2299 V 16 c 0,-0.3315 -0.1316,-0.6495 -0.3661,-0.8839 -0.2344,-0.2344 -0.5523,-0.3661 -0.8839,-0.3661 -0.3315,0 -0.6494,0.1317 -0.8838,0.3661 -0.2345,0.2344 -0.3662,0.5524 -0.3662,0.8839 v 2.14 c -1.1191,-0.0015 -2.195,0.4325 -3,1.21 -0.4035,0.3887 -0.7247,0.8546 -0.9446,1.37 -0.2199,0.5154 -0.334,1.0697 -0.3353,1.63 0.0064,0.5629 0.1244,1.1189 0.347,1.6359 0.2227,0.517 0.5456,0.9847 0.9501,1.3762 0.4044,0.3915 0.8825,0.6989 1.4065,0.9045 0.524,0.2056 1.0836,0.3053 1.6463,0.2934 z"
       fill="#000000"
       id="path2" />
    <path
       d="M 47,38 H 33 c -0.3315,0 -0.6495,0.1317 -0.8839,0.3661 -0.2344,0.2344 -0.3661,0.5524 -0.3661,0.8839 0,0.3315 0.1317,0.6495 0.3661,0.8839 C 32.3505,40.3683 32.6685,40.5 33,40.5 h 14 c 0.3315,0 0.6495,-0.1317 0.8839,-0.3661 0.2344,-0.2344 0.3661,-0.5524 0.3661,-0.8839 0,-0.3315 -0.1317,-0.6495 -0.3661,-0.8839 C 47.6495,38.1317 47.3315,38 47,38 Z"
       fill="#000000"
       id="path4" />
    <path
       d="M 47,42.75 H 33 c -0.3315,0 -0.6495,0.1317 -0.8839,0.3661 C 31.8817,43.3505 31.75,43.6685 31.75,44 c 0,0.3315 0.1317,0.6495 0.3661,0.8839 C 32.3505,45.1183 32.6685,45.25 33,45.25 h 14 c 0.3315,0 0.6495,-0.1317 0.8839,-0.3661 C 48.1183,44.6495 48.25,44.3315 48.25,44 48.25,43.6685 48.1183,43.3505 47.8839,43.1161 47.6495,42.8817 47.3315,42.75 47,42.75 Z"
       fill="#000000"
       id="path6" />
    <path
       d="M 50.77,5.21988 H 14.45 c -0.0599,-0.00541 -0.1201,-0.00541 -0.18,0 C 11.9532,5.40096 9.78962,6.44841 8.21059,8.15347 6.63156,9.85852 5.75299,12.096 5.75,14.4199 v 27.6 c 0.00265,1.8981 0.75785,3.7178 2.10004,5.0599 1.34218,1.3422 3.16186,2.0974 5.05996,2.1001 h 8.8 v 8.32 c 0,0.2321 0.0646,0.4597 0.1867,0.6571 0.122,0.1975 0.2967,0.3571 0.5043,0.4609 0.2076,0.1038 0.4401,0.1478 0.6713,0.1269 0.2312,-0.0208 0.452,-0.1056 0.6377,-0.2449 l 7.76,-5.82 7.76,5.82 c 0.215,0.1654 0.4787,0.2551 0.75,0.2551 0.2713,0 0.535,-0.0897 0.75,-0.2551 l 7.76,-5.82 7.76,5.82 c 0.215,0.1649 0.4791,0.253 0.75,0.25 0.1645,0.0013 0.3277,-0.0301 0.4799,-0.0925 0.1523,-0.0623 0.2906,-0.1543 0.407,-0.2707 0.1163,-0.1163 0.2083,-0.2546 0.2707,-0.4069 0.0623,-0.1523 0.0937,-0.3154 0.0924,-0.4799 v -44.81 C 58.2474,10.7078 57.4581,8.80779 56.0556,7.40718 54.6531,6.00657 52.7521,5.21988 50.77,5.21988 Z M 8.25,42.0499 v -27.6 c 0,-1.7849 0.70905,-3.4967 1.9712,-4.75885 1.2621,-1.26212 2.9739,-1.97117 4.7588,-1.97117 1.7849,0 3.4967,0.70905 4.7588,1.97117 1.2621,1.26215 1.9712,2.97395 1.9712,4.75885 v 32.26 h -8.8 c -1.2359,0 -2.4212,-0.491 -3.29512,-1.3649 C 8.74096,44.4711 8.25,43.2858 8.25,42.0499 Z m 47.5,13 -6.51,-4.88 c -0.2164,-0.1623 -0.4795,-0.25 -0.75,-0.25 -0.2705,0 -0.5336,0.0877 -0.75,0.25 l -7.74,5.83 -7.76,-5.82 c -0.217,-0.1608 -0.4799,-0.2475 -0.75,-0.2475 -0.2701,0 -0.533,0.0867 -0.75,0.2475 l -6.53,4.82 v -40.55 C 24.209,13.1862 23.9474,11.9364 23.4415,10.7784 22.9356,9.62046 22.1964,8.57926 21.27,7.71988 h 29.5 c 1.3261,0 2.5979,0.52678 3.5355,1.46447 0.9377,0.93765 1.4645,2.20945 1.4645,3.53555 z"
       fill="#000000"
       id="path8" />
  </g>
</svg>
